{"title":"We're Not Dressing (1934)-Bing Crosby,Carole Lombard Eng","uid":5305577,"size":590977172,"categoryP":"video","categoryS":"movies","magnet":"?xt=urn:btih:9cfea5655c3b8d731f0c3080ae7db75cad6cc54a&amp;dn=We%5C%27re+Not+Dressing+%281934%29-Bing+Crosby%2CCarole+Lombard+Eng&amp;tr=udp%3A%2F%2Ftracker.openbittorrent.com%3A80&amp;tr=udp%3A%2F%2Fopen.demonii.com%3A1337&amp;tr=udp%3A%2F%2Ftracker.coppersurfer.tk%3A6969&amp;tr=udp%3A%2F%2Fexodus.desync.com%3A6969","seeders":1,"leechers":1,"uploader":"johnefp","files":-1,"time":1264373009,"description":"We're Not Dressing is a bouncy musical-comedy variation of J. M. Barrie's The Admirable Crichton -- complete with a happier ending, as befitting its jaunty star Bing Crosby. Der Bingle is cast as Stephen Jones, a lowly crew member on yacht owned by wealthy Doris Worthington (Carole Lombard). During one memorable voyage, Doris' inebriated Uncle Dudley (Leon Errol) mans the controls of the yacht, and the result is a shipwreck on a tropical isle. Doris and her marooned society friends are then obliged to take orders from Stephen, the only one among them who knows how to fend for himself. He even manages to win over the icy Doris, though it's quite a struggle right up to the fade-out. Ethel Merman is on hand for a song or two (including a rollicking duet with Leon Errol), while George Burns and Gracie Allen show up on the not-so-deserted island as anthropologists with a full quota of rib-tickling verbal gags. Everyone involved in the making of We're Not Dressing harbored happy memories of the film, though Ray Milland (cast as Doris' snooty society fiancÃƒÂ©) had less pleasant memories of the trained bear which figures prominently in the opening scenes. Bing Crosby's musical numbers include two of his best, &quot;May I&quot; and &quot;Love Thy Neighbor.&quot;\n\n\n &lt;a href=&quot;\nhttp://www.imdb.com/title/tt0025965/&quot; rel=&quot;nofollow&quot; target=&quot;_NEW&quot;&gt;\nhttp://www.imdb.com/title/tt0025965/&lt;/a&gt;\n\n\n\nSubtitles:\n\n\n &lt;a href=&quot;\nhttp://www.opensubtitles.org/en/search/imdbid-25965/sublanguageid-all&quot; rel=&quot;nofollow&quot; target=&quot;_NEW&quot;&gt;\nhttp://www.opensubtitles.org/en/search/imdbid-25965/sublanguageid-all&lt;/a&gt;\n\n\n\n\nDirector:\nNorman Taurog\n\n\n\n\n\n\n\tBing Crosby\t... \tStephen Jones\n\n\tCarole Lombard\t... \tDoris Worthington\n\n\tGeorge Burns\t... \tGeorge Martin\n\n\tGracie Allen\t... \tGracie Martin\n\tEthel Merman\t... \tEdith\n\n\n\n Video #2\n      ID : 2\n      Format : VC-1\n      Format profile : MP@ML\n      Codec ID : WMV3\n      Codec ID/Info : Windows Media Video 9\n      Codec ID/Hint : WMV3\n      Duration : 1h 11mn\n      Bit rate mode : Variable\n      Bit rate : 1 000 Kbps\n      Width : 640 pixels\n      Height : 480 pixels\n      Display aspect ratio : 4/3\n      Frame rate : 25.000 fps\n      Resolution : 24 bits\n      Scan type : Progressive\n      Bits/(Pixel*Frame) : 0.130\n      Stream size : 508 MiB (90%)\n   Audio #1\n      ID : 1\n      Format : WMA2\n      Format profile : L\n      Codec ID : 161\n      Codec ID/Info : Windows Media Audio 2\n      Description of the codec : Windows Media Audio 9.2 -  96 kbps, 44 kHz, stereo 2-pass VBR\n      Duration : 1h 11mn\n      Bit rate mode : Variable\n      Bit rate : 96.0 Kbps\n      Channel(s) : 2 channels\n      Sampling rate : 44.1 KHz\n      Resolution : 16 bits\n      Stream size : 48.8 MiB (9%)\n\n\n\nPlease seed at least as much as you D/L.\n=======================================\nThanks \n\nJohn\n\n\n","torrent":{"xt":"urn:btih:9cfea5655c3b8d731f0c3080ae7db75cad6cc54a","amp;dn":"We%5C%27re+Not+Dressing+%281934%29-Bing+Crosby%2CCarole+Lombard+Eng","amp;tr":["udp%3A%2F%2Ftracker.openbittorrent.com%3A80","udp%3A%2F%2Fopen.demonii.com%3A1337","udp%3A%2F%2Ftracker.coppersurfer.tk%3A6969","udp%3A%2F%2Fexodus.desync.com%3A6969"],"infoHash":"9cfea5655c3b8d731f0c3080ae7db75cad6cc54a","infoHashBuffer":{"type":"Buffer","data":[156,254,165,101,92,59,141,115,31,12,48,128,174,125,183,92,173,108,197,74]},"announce":[],"urlList":[]}}